HIERARCHY
ROOT Hips
{
	OFFSET 0.000000 0.000000 0.000000
	CHANNELS 6 Xposition Yposition Zposition Xrotation Yrotation Zrotation
	JOINT LeftUpLeg_virtual
	{
		OFFSET 0.000000 0.000000 0.000000
		CHANNELS 3 Xrotation Yrotation Zrotation
		JOINT LeftUpLeg
		{
			OFFSET 13.026900 -6.336304 -1.092800
			CHANNELS 3 Xrotation Yrotation Zrotation
			JOINT LeftLeg
			{
				OFFSET 0.524474 -46.096886 9.782700
				CHANNELS 3 Xrotation Yrotation Zrotation
				JOINT LeftFoot
				{
					OFFSET -0.524474 -53.427422 -12.948200
					CHANNELS 3 Xrotation Yrotation Zrotation
					JOINT LeftToeBase
					{
						OFFSET 0.192200 -14.009700 16.364100
						CHANNELS 3 Xrotation Yrotation Zrotation
						JOINT LeftToe_End
						{
							OFFSET -1.784700 -0.561700 9.474800
							CHANNELS 3 Xrotation Yrotation Zrotation
							End Site
							{
								OFFSET 0 0 0
							}
						}
					}
				}
			}
		}
	}
	JOINT RightUpLeg_virtual
	{
		OFFSET 0.000000 0.000000 0.000000
		CHANNELS 3 Xrotation Yrotation Zrotation
		JOINT RightUpLeg
		{
			OFFSET -12.883000 -6.336304 -1.092800
			CHANNELS 3 Xrotation Yrotation Zrotation
			JOINT RightLeg
			{
				OFFSET -0.524587 -46.096825 9.782800
				CHANNELS 3 Xrotation Yrotation Zrotation
				JOINT RightFoot
				{
					OFFSET 0.524587 -53.427383 -12.948300
					CHANNELS 3 Xrotation Yrotation Zrotation
					JOINT RightToeBase
					{
						OFFSET -0.192200 -14.009700 16.364100
						CHANNELS 3 Xrotation Yrotation Zrotation
						JOINT RightToe_End
						{
							OFFSET 1.784700 -0.561700 9.474800
							CHANNELS 3 Xrotation Yrotation Zrotation
							End Site
							{
								OFFSET 0 0 0
							}
						}
					}
				}
			}
		}
	}
	JOINT Spine_virtual
	{
		OFFSET 0.000000 0.000000 0.000000
		CHANNELS 3 Xrotation Yrotation Zrotation
		JOINT Spine
		{
			OFFSET 0.072000 7.257294 -0.789700
			CHANNELS 3 Xrotation Yrotation Zrotation
			JOINT Spine1
			{
				OFFSET 0.000000 12.508769 -0.658067
				CHANNELS 3 Xrotation Yrotation Zrotation
				JOINT Spine1_split
				{
					OFFSET 0.000000 12.508769 -0.658067
					CHANNELS 3 Xrotation Yrotation Zrotation
					JOINT Spine2
					{
						OFFSET 0.000000 12.508769 -0.658067
						CHANNELS 3 Xrotation Yrotation Zrotation
						JOINT Neck_virtual
						{
							OFFSET 0.000000 0.000000 0.000000
							CHANNELS 3 Xrotation Yrotation Zrotation
							JOINT Neck
							{
								OFFSET 0.000000 14.033295 7.520400
								CHANNELS 3 Xrotation Yrotation Zrotation
								JOINT Head
								{
									OFFSET 0.000000 8.198502 5.703100
									CHANNELS 3 Xrotation Yrotation Zrotation
									JOINT HeadTop_End
									{
										OFFSET 0.000000 17.760803 13.332701
										CHANNELS 3 Xrotation Yrotation Zrotation
										End Site
										{
											OFFSET 0 0 0
										}
									}
								}
							}
						}
						JOINT LeftShoulder_virtual
						{
							OFFSET 0.000000 0.000000 0.000000
							CHANNELS 3 Xrotation Yrotation Zrotation
							JOINT LeftShoulder
							{
								OFFSET 6.292450 5.785301 -0.669000
								CHANNELS 3 Xrotation Yrotation Zrotation
								JOINT LeftShoulder_split
								{
									OFFSET 6.292450 5.785301 -0.669000
									CHANNELS 3 Xrotation Yrotation Zrotation
									JOINT LeftArm
									{
										OFFSET 13.907140 -6.093903 1.965100
										CHANNELS 3 Xrotation Yrotation Zrotation
										JOINT LeftForeArm
										{
											OFFSET 34.140198 0.000000 0.000000
											CHANNELS 3 Xrotation Yrotation Zrotation
											JOINT LeftHand
											{
												OFFSET 40.960209 0.000000 0.000000
												CHANNELS 3 Xrotation Yrotation Zrotation
												End Site
												{
													OFFSET 0 0 0
												}
											}
										}
									}
								}
							}
						}
						JOINT RightShoulder_virtual
						{
							OFFSET 0.000000 0.000000 0.000000
							CHANNELS 3 Xrotation Yrotation Zrotation
							JOINT RightShoulder
							{
								OFFSET -6.292450 5.785301 -0.669000
								CHANNELS 3 Xrotation Yrotation Zrotation
								JOINT RightShoulder_split
								{
									OFFSET -6.292450 5.785301 -0.669000
									CHANNELS 3 Xrotation Yrotation Zrotation
									JOINT RightArm
									{
										OFFSET -13.907140 -6.093903 1.965100
										CHANNELS 3 Xrotation Yrotation Zrotation
										JOINT RightForeArm
										{
											OFFSET -34.140198 0.000000 0.000000
											CHANNELS 3 Xrotation Yrotation Zrotation
											JOINT RightHand
											{
												OFFSET -40.960209 0.000000 0.000000
												CHANNELS 3 Xrotation Yrotation Zrotation
												End Site
												{
													OFFSET 0 0 0
												}
											}
										}
									}
								}
							}
						}
					}
				}
			}
		}
	}
}
MOTION
Frames: 9
Frame Time: 0.03333333
8.935032 62.376923 -34.029091 0.000000 0.000000 0.000000 64.781209 4.005420 1.383574 6.000657 11.347753 13.037358 3.824539 -4.765204 -6.675949 -32.587440 28.520356 -3.871365 -18.353799 -9.572005 -3.177325 0.000000 0.000000 0.000000 63.434378 -3.777708 4.104716 -8.045253 -18.667035 -11.131910 5.972931 5.908369 -2.171922 -27.513670 -26.774391 7.962019 -16.588125 -0.676638 4.036025 0.000000 0.000000 0.000000 72.353054 0.655711 0.011345 9.807009 2.539071 0.432929 -4.893427 -1.562692 1.834305 0.049912 0.439941 0.051814 0.000000 0.000000 0.000000 -2.778746 -0.088623 1.841223 -16.843600 11.318928 6.966553 -7.492688 -16.221218 -5.738160 0.000000 0.000000 0.000000 -3.238247 -0.840540 1.154457 1.358391 1.595826 3.339947 2.831622 0.886836 -4.332121 -42.126353 -64.267326 -49.167458 -2.400298 -14.168191 -2.218759 0.000000 0.000000 0.000000 -0.227387 -0.157993 1.766448 -2.841807 3.036067 11.905389 -3.881125 0.499890 3.248153 -47.917271 51.098025 53.668194 -28.217502 26.007562 14.239180 0.000000 0.000000 0.000000 
8.930183 62.236851 -34.014259 0.000000 0.000000 0.000000 64.524230 4.006373 1.539770 6.157727 11.526746 12.842360 3.486663 -4.697430 -6.702381 -33.036392 28.630893 -3.651345 -18.230927 -9.482180 -3.235665 0.000000 0.000000 0.000000 63.250256 -4.050680 4.359224 -8.274159 -18.814507 -11.291883 6.235511 5.941765 -2.128797 -27.501736 -26.494348 7.909934 -16.475513 -0.690220 4.074249 0.000000 0.000000 0.000000 72.479775 0.681105 0.263581 9.955720 2.590452 0.417019 -4.917245 -1.561439 1.846747 0.047392 0.413944 0.038618 0.000000 0.000000 0.000000 -2.740714 -0.087572 1.860136 -16.910288 11.279904 6.871924 -7.501789 -15.983314 -5.663779 0.000000 0.000000 0.000000 -3.238314 -0.849899 1.154057 1.417910 1.441386 3.438463 3.370568 0.826681 -4.064529 -42.944036 -63.961566 -49.868560 -2.350655 -14.337431 -2.238063 0.000000 0.000000 0.000000 -0.209017 -0.158162 1.830279 -2.764171 3.448260 11.889624 -3.741422 0.318816 3.079059 -48.402084 50.403685 53.634163 -28.148798 26.464692 14.419134 0.000000 0.000000 0.000000 
8.924847 62.093307 -34.057709 0.000000 0.000000 0.000000 64.325451 4.116205 1.596537 6.062673 11.668322 12.973379 3.163555 -4.761223 -6.873483 -32.845150 28.813662 -4.059914 -17.791089 -9.429497 -3.113638 0.000000 0.000000 0.000000 63.049907 -4.190954 4.487167 -8.460732 -19.106676 -11.510394 6.412011 5.981127 -2.064054 -27.423146 -25.898788 7.849058 -16.769790 -0.679759 4.134602 0.000000 0.000000 0.000000 72.536363 0.674023 0.552206 10.110055 2.683205 0.433242 -4.933027 -1.574934 1.859271 0.036430 0.379709 0.043082 0.000000 0.000000 0.000000 -2.679793 -0.098996 1.876964 -16.743174 11.240552 6.647792 -7.462232 -15.749441 -5.635640 0.000000 0.000000 0.000000 -3.187222 -0.877198 1.140616 1.462574 1.104300 3.700355 4.053185 1.013929 -3.822916 -43.197029 -63.889596 -50.185447 -2.061048 -14.943643 -2.100123 0.000000 0.000000 0.000000 -0.131975 -0.171083 1.890200 -2.752359 4.146889 11.848903 -3.698976 -0.003502 2.943696 -47.556705 49.306142 52.548272 -28.086797 28.237559 14.695663 0.000000 0.000000 0.000000 
8.918496 61.958286 -34.116447 0.000000 0.000000 0.000000 64.157668 4.377416 1.527434 5.758919 11.766949 13.364214 2.676678 -4.901491 -7.158775 -31.942787 29.019210 -4.941379 -17.556035 -9.426959 -2.827567 0.000000 0.000000 0.000000 62.902088 -4.171012 4.488806 -8.558091 -19.475630 -11.767645 6.521956 5.927566 -2.004174 -27.352263 -25.131271 7.698945 -17.419498 -0.659281 4.218228 0.000000 0.000000 0.000000 72.543453 0.641466 0.848651 10.238466 2.805684 0.488385 -4.922773 -1.613354 1.866661 0.019611 0.332616 0.053602 0.000000 0.000000 0.000000 -2.594956 -0.132554 1.892724 -16.365874 11.205103 6.306715 -7.459290 -15.526314 -5.663517 0.000000 0.000000 0.000000 -3.072595 -0.928566 1.114323 1.495503 0.642709 4.134322 4.691057 1.446472 -3.717936 -43.005152 -63.923932 -50.132656 -1.590508 -15.800738 -1.811605 0.000000 0.000000 0.000000 0.005336 -0.199888 1.943771 -2.814492 5.146643 11.745963 -3.734623 -0.355784 2.831780 -45.748887 47.867496 50.701085 -27.953700 30.975533 14.972932 0.000000 0.000000 0.000000 
8.914047 61.862083 -34.176376 0.000000 0.000000 0.000000 64.040844 4.791198 1.320954 5.433485 11.976150 13.856266 1.757455 -4.754325 -7.472038 -30.922732 29.142518 -5.508801 -17.900334 -9.480589 -2.454260 0.000000 0.000000 0.000000 62.827837 -4.050991 4.411406 -8.595576 -19.839522 -12.054903 6.628531 5.673424 -1.951373 -27.297756 -24.322799 7.417442 -18.159596 -0.626377 4.315232 0.000000 0.000000 0.000000 72.498558 0.649372 1.093511 10.308375 2.947953 0.592032 -4.872411 -1.694644 1.862035 -0.005969 0.270196 0.056462 0.000000 0.000000 0.000000 -2.457076 -0.198912 1.904680 -15.798460 11.175614 5.869763 -7.573264 -15.348316 -5.720999 0.000000 0.000000 0.000000 -2.872778 -1.013830 1.069765 1.514797 0.090109 4.712935 5.249928 1.978415 -3.776501 -42.479733 -63.907129 -49.637689 -1.053494 -16.691469 -1.417402 0.000000 0.000000 0.000000 0.214975 -0.251281 1.985332 -2.957206 6.462604 11.523498 -3.643401 -0.740527 2.632484 -43.560177 46.153183 48.446187 -27.697802 34.266704 15.156719 0.000000 0.000000 0.000000 
8.822105 61.859386 -34.201836 0.000000 0.000000 0.000000 63.987849 5.292045 1.028156 5.102894 12.341189 14.336603 0.478583 -4.337399 -7.690521 -29.804671 29.202996 -5.735604 -18.680414 -9.539712 -2.118498 0.000000 0.000000 0.000000 62.813992 -3.846235 4.279463 -8.622114 -20.102768 -12.313960 6.696199 5.151935 -1.894322 -27.304600 -23.566190 6.946671 -18.684799 -0.570067 4.423610 0.000000 0.000000 0.000000 72.492131 0.752228 1.265399 10.255178 3.114401 0.759884 -4.740744 -1.821983 1.838089 -0.033704 0.230507 0.053298 0.000000 0.000000 0.000000 -2.241721 -0.305064 1.904386 -15.086909 11.125154 5.358386 -7.850772 -15.232410 -5.807572 0.000000 0.000000 0.000000 -2.584579 -1.134659 0.998336 1.521792 -0.533079 5.373490 5.702737 2.447893 -3.981012 -41.678316 -63.727154 -48.655969 -0.582291 -17.466380 -1.005058 0.000000 0.000000 0.000000 0.512150 -0.329335 2.000592 -3.160516 8.094338 11.141900 -3.525396 -1.071938 2.368792 -41.502480 44.196419 46.042858 -27.231435 37.684196 15.127144 0.000000 0.000000 0.000000 
8.609945 61.943840 -34.193687 0.000000 0.000000 0.000000 64.033037 5.814677 0.663734 4.570079 12.772619 14.752886 -0.840106 -3.732911 -7.693654 -28.601287 29.175962 -5.689337 -19.400995 -9.567129 -1.915687 0.000000 0.000000 0.000000 62.933151 -3.595736 4.075667 -8.636194 -20.254912 -12.440384 6.634483 4.319970 -1.836721 -27.422228 -22.926151 6.262810 -18.935038 -0.478512 4.531926 0.000000 0.000000 0.000000 72.613968 0.938204 1.381306 10.039546 3.276024 0.997737 -4.519201 -1.997553 1.786601 -0.047537 0.214500 0.041014 0.000000 0.000000 0.000000 -1.932965 -0.455272 1.883338 -14.270540 11.054023 4.799070 -8.268332 -15.180625 -5.899199 0.000000 0.000000 0.000000 -2.202593 -1.293993 0.889465 1.522892 -1.201322 6.074823 6.082794 2.779682 -4.340291 -40.534912 -63.345387 -47.092160 -0.320881 -18.083727 -0.682593 0.000000 0.000000 0.000000 0.891169 -0.441089 1.988283 -3.395384 9.989907 10.626763 -3.329735 -1.176753 2.135354 -39.920612 42.015072 43.633461 -26.544294 40.888128 14.849781 0.000000 0.000000 0.000000 
8.280330 62.156609 -34.145699 0.000000 0.000000 0.000000 64.276335 6.328814 0.245694 3.731990 13.134927 15.024353 -1.797934 -3.158610 -7.411034 -27.355486 29.016952 -5.640263 -20.011474 -9.550042 -1.753292 0.000000 0.000000 0.000000 63.175077 -3.284982 3.804873 -8.652980 -20.263899 -12.347915 6.355758 3.252299 -1.794344 -27.631733 -22.402978 5.446175 -18.940950 -0.339997 4.618027 0.000000 0.000000 0.000000 72.907714 1.152797 1.435647 9.662949 3.427266 1.287701 -4.222768 -2.213291 1.701478 -0.045939 0.214939 0.035495 0.000000 0.000000 0.000000 -1.546204 -0.644022 1.832190 -13.413285 10.955658 4.217413 -8.802090 -15.162743 -6.005285 0.000000 0.000000 0.000000 -1.748820 -1.487092 0.748803 1.516257 -1.897958 6.796589 6.436356 2.916875 -4.713091 -38.864377 -62.801752 -44.758322 -0.366266 -18.675708 -0.531198 0.000000 0.000000 0.000000 1.347058 -0.591137 1.930359 -3.621910 12.073254 9.987229 -3.070200 -1.230777 2.074909 -38.728450 39.825119 41.178019 -25.694280 43.674610 14.386573 0.000000 0.000000 0.000000 
7.785587 62.494762 -34.027473 0.000000 0.000000 0.000000 64.724334 6.807378 -0.181572 2.496847 13.341259 15.122841 -2.149085 -2.878201 -6.834230 -26.349572 28.647144 -5.763926 -20.509417 -9.515064 -1.531105 0.000000 0.000000 0.000000 63.532302 -3.000871 3.559231 -8.785560 -20.122762 -12.043529 5.881624 2.059566 -1.776753 -27.876548 -21.994022 4.566585 -18.644501 -0.161002 4.705090 0.000000 0.000000 0.000000 73.409780 1.356043 1.398526 9.132309 3.570718 1.603902 -3.826845 -2.446767 1.587744 -0.031131 0.224081 0.024585 0.000000 0.000000 0.000000 -1.111678 -0.861967 1.748730 -12.572144 10.817287 3.649155 -9.380761 -15.163020 -6.136303 0.000000 0.000000 0.000000 -1.218057 -1.701573 0.595023 1.512798 -2.613377 7.586694 6.694636 2.773031 -5.043724 -36.449902 -62.114123 -41.470948 -0.779371 -19.347503 -0.573168 0.000000 0.000000 0.000000 1.890323 -0.769320 1.818039 -3.798949 14.259966 9.316047 -2.765670 -1.297072 2.267172 -37.922658 37.811599 38.707888 -24.812414 45.887089 13.862660 0.000000 0.000000 0.000000 
